<svg xmlns="http://www.w3.org/2000/svg" viewBox="0 0 200 40" fill="none">
  <!-- Icon: all-white ghost style -->
  <circle cx="20" cy="20" r="20" fill="rgba(255,255,255,0.15)"/>
  <circle cx="20" cy="20" r="16.5" fill="none" stroke="rgba(255,255,255,0.25)" stroke-width="1.4" stroke-dasharray="2.2 2.8"/>
  <path d="M10.5 21.5L20 13.5L29.5 21.5V30.5C29.5 31.05 29.05 31.5 28.5 31.5H11.5C10.95 31.5 10.5 31.05 10.5 30.5V21.5Z" fill="white" fill-opacity="0.9"/>
  <path d="M9 22.5L20 13L31 22.5" fill="none" stroke="rgba(255,255,255,0.3)" stroke-width="1.2" stroke-linecap="round" stroke-linejoin="round"/>
  <polyline points="13,28.5 16.5,25.5 19.5,27 23.5,23" fill="none" stroke="rgba(255,255,255,0.5)" stroke-width="1.8" stroke-linecap="round" stroke-linejoin="round"/>
  <circle cx="23.5" cy="23" r="1.8" fill="rgba(255,255,255,0.5)"/>
  <circle cx="29.5" cy="11.5" r="5.2" fill="rgba(255,255,255,0.12)"/>
  <circle cx="29.5" cy="11.5" r="5.2" fill="none" stroke="rgba(255,255,255,0.3)" stroke-width="1"/>
  <path d="M27.5 9.5 A3 3 0 0 1 32 11.5" fill="none" stroke="rgba(255,255,255,0.7)" stroke-width="1.3" stroke-linecap="round"/>
  <path d="M31.5 13.5 A3 3 0 0 1 27 11.5" fill="none" stroke="rgba(255,255,255,0.5)" stroke-width="1.3" stroke-linecap="round"/>
  <path d="M31.5 9.2 L32.2 11.2 L30.2 11" fill="none" stroke="rgba(255,255,255,0.7)" stroke-width="1" stroke-linecap="round" stroke-linejoin="round"/>
  <path d="M27.5 13.8 L26.8 11.8 L28.8 12" fill="none" stroke="rgba(255,255,255,0.5)" stroke-width="1" stroke-linecap="round" stroke-linejoin="round"/>

  <!-- Wordmark: all white -->
  <text x="48" y="26" font-family="Inter, -apple-system, system-ui, sans-serif" font-size="17" letter-spacing="-0.4">
    <tspan font-weight="700" fill="white">FundFlow</tspan><tspan font-weight="800" fill="rgba(255,255,255,0.6)">Hub</tspan>
  </text>
</svg>
