<svg xmlns="http://www.w3.org/2000/svg" viewBox="0 0 32 32" fill="none">
  <circle cx="16" cy="16" r="16" fill="#00BFA5"/>
  <circle cx="16" cy="16" r="13" fill="none" stroke="rgba(255,255,255,0.3)" stroke-width="1.1" stroke-dasharray="1.8 2.2"/>
  <path d="M8 17.5L16 11L24 17.5V25C24 25.55 23.55 26 23 26H9C8.45 26 8 25.55 8 25V17.5Z" fill="white" fill-opacity="0.96"/>
  <path d="M6.5 18.5L16 11L25.5 18.5" fill="none" stroke="rgba(255,255,255,0.3)" stroke-width="1" stroke-linecap="round"/>
  <polyline points="10.5,23 13,21 15.5,22 19,19" fill="none" stroke="#00BFA5" stroke-width="1.6" stroke-linecap="round" stroke-linejoin="round"/>
  <circle cx="19" cy="19" r="1.4" fill="#00BFA5"/>
  <circle cx="24" cy="9" r="4" fill="#1B2F5B"/>
  <circle cx="24" cy="9" r="4" fill="none" stroke="rgba(0,191,165,0.5)" stroke-width="0.8"/>
  <path d="M22.5 7.5 A2.2 2.2 0 0 1 26 9" fill="none" stroke="white" stroke-width="1.1" stroke-linecap="round"/>
  <path d="M25.5 10.5 A2.2 2.2 0 0 1 22 9" fill="none" stroke="#00BFA5" stroke-width="1.1" stroke-linecap="round"/>
</svg>
